<svg width="277" height="53" viewBox="0 0 277 53" fill="none" xmlns="http://www.w3.org/2000/svg">
<path d="M0.163208 20.118L21.7112 20.1224L34.8139 20.1246V7.13336L0.163208 20.118Z" fill="#FF9D28"/>
<path d="M34.8165 7.13444V53L51.1815 1L34.8165 7.13444Z" fill="#68C5ED"/>
<path d="M34.8144 20.1256L21.7118 20.1233L34.8144 52.9999V20.1256Z" fill="#044D80"/>
<path d="M0.163208 20.1205L25.0712 28.5604L21.7112 20.1248L0.163208 20.1205Z" fill="#E54747"/>
<path d="M84.4559 19V6.39648H88.9383C89.9578 6.39648 90.825 6.71289 91.5399 7.3457C92.2547 7.97266 92.6121 8.72559 92.6121 9.60449C92.6121 10.249 92.4188 10.832 92.032 11.3535C91.6512 11.875 91.1678 12.2031 90.5818 12.3379C91.3436 12.4375 91.9764 12.7891 92.4803 13.3926C92.9901 13.9902 93.2449 14.6904 93.2449 15.4932C93.2449 16.4775 92.8787 17.3096 92.1463 17.9893C91.4197 18.6631 90.532 19 89.4832 19H84.4559ZM86.1873 11.7666H88.8856C89.4363 11.7666 89.9022 11.582 90.283 11.2129C90.6697 10.8438 90.8631 10.3926 90.8631 9.85938C90.8631 9.35547 90.6697 8.93066 90.283 8.58496C89.9022 8.2334 89.4363 8.05762 88.8856 8.05762H86.1873V11.7666ZM86.1873 17.3477H89.3777C89.9813 17.3477 90.4822 17.1484 90.8807 16.75C91.2791 16.3457 91.4783 15.8477 91.4783 15.2559C91.4783 14.6816 91.2762 14.1924 90.8719 13.7881C90.4676 13.3838 89.9754 13.1816 89.3953 13.1816H86.1873V17.3477ZM103.212 14.3945C103.212 14.6465 103.2 14.8662 103.177 15.0537H96.119C96.2186 15.8564 96.5262 16.4951 97.0418 16.9697C97.5633 17.4443 98.2283 17.6816 99.0369 17.6816C99.6522 17.6816 100.182 17.5439 100.628 17.2686C101.073 16.9873 101.351 16.6152 101.463 16.1523H103.124C102.96 17.0664 102.497 17.7988 101.735 18.3496C100.973 18.9004 100.056 19.1758 98.9842 19.1758C97.7068 19.1758 96.6375 18.7363 95.7762 17.8574C94.9149 16.9727 94.4842 15.877 94.4842 14.5703C94.4842 13.7383 94.6805 12.9766 95.0731 12.2852C95.4656 11.5879 96.0047 11.04 96.6902 10.6416C97.3817 10.2373 98.1404 10.0352 98.9666 10.0352C100.156 10.0352 101.161 10.4482 101.981 11.2744C102.802 12.1006 103.212 13.1406 103.212 14.3945ZM96.1717 13.6562H101.41C101.34 13.0352 101.073 12.5283 100.61 12.1357C100.153 11.7432 99.5818 11.5469 98.8963 11.5469C98.2049 11.5469 97.616 11.7344 97.1297 12.1094C96.6434 12.4844 96.324 13 96.1717 13.6562ZM108.116 19.1758C107.085 19.1758 106.232 18.918 105.558 18.4023C104.89 17.8867 104.513 17.1865 104.425 16.3018H106.015C106.068 16.7354 106.279 17.084 106.648 17.3477C107.023 17.6113 107.489 17.7432 108.046 17.7432C108.591 17.7432 109.027 17.6289 109.355 17.4004C109.683 17.166 109.847 16.8643 109.847 16.4951C109.847 16.2021 109.751 15.9619 109.557 15.7744C109.364 15.5869 109.115 15.4492 108.81 15.3613C108.506 15.2676 108.166 15.1855 107.791 15.1152C107.422 15.0449 107.05 14.9629 106.675 14.8691C106.305 14.7695 105.969 14.6406 105.664 14.4824C105.359 14.3242 105.11 14.0898 104.917 13.7793C104.723 13.4629 104.627 13.0791 104.627 12.6279C104.627 11.8721 104.923 11.251 105.514 10.7646C106.106 10.2783 106.886 10.0352 107.852 10.0352C108.761 10.0352 109.54 10.2725 110.19 10.7471C110.841 11.2158 111.219 11.8604 111.324 12.6807H109.645C109.593 12.3232 109.396 12.0273 109.056 11.793C108.722 11.5586 108.306 11.4414 107.808 11.4414C107.346 11.4414 106.968 11.5381 106.675 11.7314C106.388 11.9248 106.244 12.1826 106.244 12.5049C106.244 12.7861 106.341 13.0146 106.534 13.1904C106.727 13.3604 106.976 13.4863 107.281 13.5684C107.586 13.6504 107.923 13.7236 108.292 13.7881C108.667 13.8525 109.039 13.9375 109.408 14.043C109.783 14.1426 110.123 14.2773 110.428 14.4473C110.732 14.6172 110.981 14.8721 111.175 15.2119C111.368 15.5518 111.465 15.9678 111.465 16.46C111.465 17.2393 111.145 17.8867 110.507 18.4023C109.868 18.918 109.071 19.1758 108.116 19.1758ZM117.863 11.8018H115.49V15.8535C115.49 16.9785 116.076 17.541 117.248 17.541C117.5 17.541 117.705 17.5176 117.863 17.4707V19C117.594 19.0703 117.274 19.1055 116.905 19.1055C115.956 19.1055 115.206 18.833 114.655 18.2881C114.104 17.7373 113.829 16.9375 113.829 15.8887V11.8018H112.124V10.2197H113.829V7.83789H115.49V10.2197H117.863V11.8018ZM130.871 10.2197H132.532V19H130.871V17.1982C130.543 17.8369 130.095 18.3262 129.526 18.666C128.958 19.0059 128.29 19.1758 127.522 19.1758C126.339 19.1758 125.331 18.7334 124.499 17.8486C123.673 16.958 123.26 15.877 123.26 14.6055C123.26 13.334 123.673 12.2559 124.499 11.3711C125.331 10.4805 126.339 10.0352 127.522 10.0352C128.29 10.0352 128.958 10.2051 129.526 10.5449C130.095 10.8848 130.543 11.374 130.871 12.0127V10.2197ZM127.865 17.5938C128.732 17.5938 129.45 17.3125 130.018 16.75C130.587 16.1875 130.871 15.4727 130.871 14.6055C130.871 13.7383 130.587 13.0234 130.018 12.4609C129.45 11.8984 128.732 11.6172 127.865 11.6172C127.033 11.6172 126.327 11.9072 125.747 12.4873C125.167 13.0674 124.877 13.7734 124.877 14.6055C124.877 15.4375 125.167 16.1436 125.747 16.7236C126.327 17.3037 127.033 17.5938 127.865 17.5938ZM139.836 10.0352C140.621 10.0352 141.342 10.2373 141.998 10.6416C142.654 11.0459 143.173 11.5996 143.554 12.3027C143.934 13.0059 144.125 13.7734 144.125 14.6055C144.125 15.4375 143.934 16.2051 143.554 16.9082C143.173 17.6113 142.654 18.165 141.998 18.5693C141.342 18.9736 140.621 19.1758 139.836 19.1758C139.08 19.1758 138.418 19.0088 137.849 18.6748C137.287 18.335 136.842 17.8545 136.513 17.2334V22.1816H134.835V10.2197H136.513V11.9775C136.842 11.3564 137.287 10.8789 137.849 10.5449C138.418 10.2051 139.08 10.0352 139.836 10.0352ZM139.502 17.5938C140.334 17.5938 141.037 17.3066 141.611 16.7324C142.191 16.1523 142.481 15.4434 142.481 14.6055C142.481 13.7676 142.191 13.0615 141.611 12.4873C141.037 11.9072 140.334 11.6172 139.502 11.6172C138.64 11.6172 137.926 11.9014 137.357 12.4697C136.795 13.0322 136.513 13.7441 136.513 14.6055C136.513 15.4668 136.795 16.1816 137.357 16.75C137.926 17.3125 138.64 17.5938 139.502 17.5938ZM150.945 10.0352C151.73 10.0352 152.451 10.2373 153.107 10.6416C153.763 11.0459 154.282 11.5996 154.663 12.3027C155.044 13.0059 155.234 13.7734 155.234 14.6055C155.234 15.4375 155.044 16.2051 154.663 16.9082C154.282 17.6113 153.763 18.165 153.107 18.5693C152.451 18.9736 151.73 19.1758 150.945 19.1758C150.189 19.1758 149.527 19.0088 148.959 18.6748C148.396 18.335 147.951 17.8545 147.623 17.2334V22.1816H145.944V10.2197H147.623V11.9775C147.951 11.3564 148.396 10.8789 148.959 10.5449C149.527 10.2051 150.189 10.0352 150.945 10.0352ZM150.611 17.5938C151.443 17.5938 152.146 17.3066 152.721 16.7324C153.301 16.1523 153.591 15.4434 153.591 14.6055C153.591 13.7676 153.301 13.0615 152.721 12.4873C152.146 11.9072 151.443 11.6172 150.611 11.6172C149.75 11.6172 149.035 11.9014 148.467 12.4697C147.904 13.0322 147.623 13.7441 147.623 14.6055C147.623 15.4668 147.904 16.1816 148.467 16.75C149.035 17.3125 149.75 17.5938 150.611 17.5938ZM165.596 7.67969C164.419 7.67969 163.83 8.23633 163.83 9.34961V10.2197H166.221V11.8018H163.83V19H162.178V11.8018H160.464V10.2197H162.178V9.33203C162.178 8.2832 162.453 7.48633 163.004 6.94141C163.555 6.39062 164.305 6.11523 165.254 6.11523C165.605 6.11523 165.928 6.15039 166.221 6.2207V7.75C166.039 7.70313 165.831 7.67969 165.596 7.67969ZM171.055 10.0352C171.892 10.0352 172.657 10.2373 173.348 10.6416C174.04 11.04 174.585 11.5908 174.983 12.2939C175.388 12.9971 175.59 13.7734 175.59 14.623C175.59 15.9062 175.15 16.9873 174.271 17.8662C173.398 18.7393 172.326 19.1758 171.055 19.1758C170.217 19.1758 169.449 18.9766 168.752 18.5781C168.06 18.1797 167.515 17.6318 167.117 16.9346C166.719 16.2373 166.519 15.4668 166.519 14.623C166.519 13.3281 166.956 12.2412 167.829 11.3623C168.702 10.4775 169.777 10.0352 171.055 10.0352ZM171.055 11.6172C170.228 11.6172 169.534 11.9043 168.971 12.4785C168.415 13.0527 168.137 13.7676 168.137 14.623C168.137 15.4609 168.415 16.167 168.971 16.7412C169.534 17.3096 170.228 17.5938 171.055 17.5938C171.875 17.5938 172.566 17.3066 173.129 16.7324C173.691 16.1582 173.972 15.4551 173.972 14.623C173.972 13.7676 173.691 13.0527 173.129 12.4785C172.566 11.9043 171.875 11.6172 171.055 11.6172ZM181.513 10.0527C181.795 10.0527 182.064 10.0879 182.322 10.1582V11.6963C182.012 11.5967 181.724 11.5469 181.461 11.5469C180.787 11.5469 180.224 11.7783 179.773 12.2412C179.328 12.6982 179.105 13.3018 179.105 14.0518V19H177.427V10.2197H179.105V11.4941C179.369 11.043 179.709 10.6914 180.125 10.4395C180.541 10.1816 181.004 10.0527 181.513 10.0527ZM193.062 10.0352C193.847 10.0352 194.568 10.2373 195.224 10.6416C195.881 11.0459 196.399 11.5996 196.78 12.3027C197.161 13.0059 197.351 13.7734 197.351 14.6055C197.351 15.4375 197.161 16.2051 196.78 16.9082C196.399 17.6113 195.881 18.165 195.224 18.5693C194.568 18.9736 193.847 19.1758 193.062 19.1758C192.306 19.1758 191.644 19.0088 191.076 18.6748C190.513 18.335 190.068 17.8545 189.74 17.2334V19H188.061V6.39648H189.74V11.9775C190.068 11.3564 190.513 10.8789 191.076 10.5449C191.644 10.2051 192.306 10.0352 193.062 10.0352ZM192.728 17.5938C193.56 17.5938 194.263 17.3066 194.838 16.7324C195.418 16.1523 195.708 15.4434 195.708 14.6055C195.708 13.7676 195.418 13.0615 194.838 12.4873C194.263 11.9072 193.56 11.6172 192.728 11.6172C191.867 11.6172 191.152 11.9014 190.584 12.4697C190.021 13.0322 189.74 13.7441 189.74 14.6055C189.74 15.4668 190.021 16.1816 190.584 16.75C191.152 17.3125 191.867 17.5938 192.728 17.5938ZM205.666 10.2197H207.327V19H205.666V17.4531C205.385 18.0039 205.001 18.4287 204.514 18.7275C204.034 19.0264 203.477 19.1758 202.845 19.1758C201.72 19.1758 200.826 18.8242 200.164 18.1211C199.502 17.4121 199.171 16.457 199.171 15.2559V10.2197H200.849V15.0537C200.849 15.8213 201.063 16.4365 201.491 16.8994C201.925 17.3623 202.502 17.5938 203.222 17.5938C203.967 17.5938 204.558 17.3623 204.998 16.8994C205.443 16.4365 205.666 15.8213 205.666 15.0537V10.2197ZM212.723 19.1758C211.692 19.1758 210.84 18.918 210.166 18.4023C209.498 17.8867 209.12 17.1865 209.032 16.3018H210.623C210.676 16.7354 210.887 17.084 211.256 17.3477C211.631 17.6113 212.096 17.7432 212.653 17.7432C213.198 17.7432 213.635 17.6289 213.963 17.4004C214.291 17.166 214.455 16.8643 214.455 16.4951C214.455 16.2021 214.358 15.9619 214.165 15.7744C213.971 15.5869 213.722 15.4492 213.418 15.3613C213.113 15.2676 212.773 15.1855 212.398 15.1152C212.029 15.0449 211.657 14.9629 211.282 14.8691C210.913 14.7695 210.576 14.6406 210.271 14.4824C209.967 14.3242 209.718 14.0898 209.524 13.7793C209.331 13.4629 209.234 13.0791 209.234 12.6279C209.234 11.8721 209.53 11.251 210.122 10.7646C210.714 10.2783 211.493 10.0352 212.46 10.0352C213.368 10.0352 214.147 10.2725 214.798 10.7471C215.448 11.2158 215.826 11.8604 215.931 12.6807H214.253C214.2 12.3232 214.004 12.0273 213.664 11.793C213.33 11.5586 212.914 11.4414 212.416 11.4414C211.953 11.4414 211.575 11.5381 211.282 11.7314C210.995 11.9248 210.851 12.1826 210.851 12.5049C210.851 12.7861 210.948 13.0146 211.141 13.1904C211.335 13.3604 211.584 13.4863 211.888 13.5684C212.193 13.6504 212.53 13.7236 212.899 13.7881C213.274 13.8525 213.646 13.9375 214.015 14.043C214.39 14.1426 214.73 14.2773 215.035 14.4473C215.34 14.6172 215.589 14.8721 215.782 15.2119C215.975 15.5518 216.072 15.9678 216.072 16.46C216.072 17.2393 215.753 17.8867 215.114 18.4023C214.475 18.918 213.679 19.1758 212.723 19.1758ZM218.735 6.27344C219.034 6.27344 219.295 6.38477 219.517 6.60742C219.74 6.83008 219.851 7.09082 219.851 7.38965C219.851 7.69434 219.74 7.95801 219.517 8.18066C219.295 8.39746 219.034 8.50586 218.735 8.50586C218.425 8.50586 218.161 8.39746 217.944 8.18066C217.727 7.96387 217.619 7.7002 217.619 7.38965C217.619 7.09082 217.727 6.83008 217.944 6.60742C218.167 6.38477 218.43 6.27344 218.735 6.27344ZM217.891 10.2197H219.57V19H217.891V10.2197ZM226.346 10.0352C227.477 10.0352 228.371 10.3896 229.027 11.0986C229.689 11.8076 230.02 12.7686 230.02 13.9814V19H228.359V14.1572C228.359 13.3896 228.142 12.7744 227.709 12.3115C227.275 11.8486 226.695 11.6172 225.969 11.6172C225.23 11.6172 224.641 11.8486 224.202 12.3115C223.763 12.7744 223.543 13.3896 223.543 14.1572V19H221.864V10.2197H223.543V11.749C223.824 11.2041 224.205 10.7822 224.685 10.4834C225.172 10.1846 225.725 10.0352 226.346 10.0352ZM240.602 14.3945C240.602 14.6465 240.591 14.8662 240.567 15.0537H233.51C233.609 15.8564 233.917 16.4951 234.432 16.9697C234.954 17.4443 235.619 17.6816 236.428 17.6816C237.043 17.6816 237.573 17.5439 238.018 17.2686C238.464 16.9873 238.742 16.6152 238.853 16.1523H240.514C240.35 17.0664 239.888 17.7988 239.126 18.3496C238.364 18.9004 237.447 19.1758 236.375 19.1758C235.097 19.1758 234.028 18.7363 233.167 17.8574C232.305 16.9727 231.875 15.877 231.875 14.5703C231.875 13.7383 232.071 12.9766 232.464 12.2852C232.856 11.5879 233.395 11.04 234.081 10.6416C234.772 10.2373 235.531 10.0352 236.357 10.0352C237.547 10.0352 238.552 10.4482 239.372 11.2744C240.192 12.1006 240.602 13.1406 240.602 14.3945ZM233.562 13.6562H238.801C238.73 13.0352 238.464 12.5283 238.001 12.1357C237.544 11.7432 236.972 11.5469 236.287 11.5469C235.596 11.5469 235.007 11.7344 234.52 12.1094C234.034 12.4844 233.715 13 233.562 13.6562ZM245.507 19.1758C244.475 19.1758 243.623 18.918 242.949 18.4023C242.281 17.8867 241.903 17.1865 241.815 16.3018H243.406C243.459 16.7354 243.67 17.084 244.039 17.3477C244.414 17.6113 244.88 17.7432 245.436 17.7432C245.981 17.7432 246.418 17.6289 246.746 17.4004C247.074 17.166 247.238 16.8643 247.238 16.4951C247.238 16.2021 247.141 15.9619 246.948 15.7744C246.755 15.5869 246.506 15.4492 246.201 15.3613C245.896 15.2676 245.556 15.1855 245.181 15.1152C244.812 15.0449 244.44 14.9629 244.065 14.8691C243.696 14.7695 243.359 14.6406 243.055 14.4824C242.75 14.3242 242.501 14.0898 242.307 13.7793C242.114 13.4629 242.017 13.0791 242.017 12.6279C242.017 11.8721 242.313 11.251 242.905 10.7646C243.497 10.2783 244.276 10.0352 245.243 10.0352C246.151 10.0352 246.93 10.2725 247.581 10.7471C248.231 11.2158 248.609 11.8604 248.715 12.6807H247.036C246.983 12.3232 246.787 12.0273 246.447 11.793C246.113 11.5586 245.697 11.4414 245.199 11.4414C244.736 11.4414 244.358 11.5381 244.065 11.7314C243.778 11.9248 243.635 12.1826 243.635 12.5049C243.635 12.7861 243.731 13.0146 243.925 13.1904C244.118 13.3604 244.367 13.4863 244.672 13.5684C244.976 13.6504 245.313 13.7236 245.682 13.7881C246.057 13.8525 246.43 13.9375 246.799 14.043C247.174 14.1426 247.513 14.2773 247.818 14.4473C248.123 14.6172 248.372 14.8721 248.565 15.2119C248.759 15.5518 248.855 15.9678 248.855 16.46C248.855 17.2393 248.536 17.8867 247.897 18.4023C247.259 18.918 246.462 19.1758 245.507 19.1758ZM253.68 19.1758C252.649 19.1758 251.797 18.918 251.123 18.4023C250.455 17.8867 250.077 17.1865 249.989 16.3018H251.58C251.633 16.7354 251.844 17.084 252.213 17.3477C252.588 17.6113 253.054 17.7432 253.61 17.7432C254.155 17.7432 254.592 17.6289 254.92 17.4004C255.248 17.166 255.412 16.8643 255.412 16.4951C255.412 16.2021 255.315 15.9619 255.122 15.7744C254.929 15.5869 254.68 15.4492 254.375 15.3613C254.07 15.2676 253.73 15.1855 253.355 15.1152C252.986 15.0449 252.614 14.9629 252.239 14.8691C251.87 14.7695 251.533 14.6406 251.228 14.4824C250.924 14.3242 250.675 14.0898 250.481 13.7793C250.288 13.4629 250.191 13.0791 250.191 12.6279C250.191 11.8721 250.487 11.251 251.079 10.7646C251.671 10.2783 252.45 10.0352 253.417 10.0352C254.325 10.0352 255.104 10.2725 255.755 10.7471C256.405 11.2158 256.783 11.8604 256.888 12.6807H255.21C255.157 12.3232 254.961 12.0273 254.621 11.793C254.287 11.5586 253.871 11.4414 253.373 11.4414C252.91 11.4414 252.532 11.5381 252.239 11.7314C251.952 11.9248 251.808 12.1826 251.808 12.5049C251.808 12.7861 251.905 13.0146 252.098 13.1904C252.292 13.3604 252.541 13.4863 252.846 13.5684C253.15 13.6504 253.487 13.7236 253.856 13.7881C254.231 13.8525 254.603 13.9375 254.972 14.043C255.347 14.1426 255.687 14.2773 255.992 14.4473C256.297 14.6172 256.546 14.8721 256.739 15.2119C256.932 15.5518 257.029 15.9678 257.029 16.46C257.029 17.2393 256.71 17.8867 256.071 18.4023C255.432 18.918 254.636 19.1758 253.68 19.1758ZM267.057 14.3945C267.057 14.6465 267.046 14.8662 267.022 15.0537H259.965C260.064 15.8564 260.372 16.4951 260.888 16.9697C261.409 17.4443 262.074 17.6816 262.883 17.6816C263.498 17.6816 264.028 17.5439 264.473 17.2686C264.919 16.9873 265.197 16.6152 265.308 16.1523H266.97C266.805 17.0664 266.343 17.7988 265.581 18.3496C264.819 18.9004 263.902 19.1758 262.83 19.1758C261.553 19.1758 260.483 18.7363 259.622 17.8574C258.761 16.9727 258.33 15.877 258.33 14.5703C258.33 13.7383 258.526 12.9766 258.919 12.2852C259.311 11.5879 259.85 11.04 260.536 10.6416C261.227 10.2373 261.986 10.0352 262.812 10.0352C264.002 10.0352 265.007 10.4482 265.827 11.2744C266.647 12.1006 267.057 13.1406 267.057 14.3945ZM260.017 13.6562H265.256C265.185 13.0352 264.919 12.5283 264.456 12.1357C263.999 11.7432 263.428 11.5469 262.742 11.5469C262.051 11.5469 261.462 11.7344 260.975 12.1094C260.489 12.4844 260.17 13 260.017 13.6562ZM271.962 19.1758C270.93 19.1758 270.078 18.918 269.404 18.4023C268.736 17.8867 268.358 17.1865 268.27 16.3018H269.861C269.914 16.7354 270.125 17.084 270.494 17.3477C270.869 17.6113 271.335 17.7432 271.891 17.7432C272.436 17.7432 272.873 17.6289 273.201 17.4004C273.529 17.166 273.693 16.8643 273.693 16.4951C273.693 16.2021 273.596 15.9619 273.403 15.7744C273.21 15.5869 272.961 15.4492 272.656 15.3613C272.351 15.2676 272.012 15.1855 271.637 15.1152C271.267 15.0449 270.895 14.9629 270.52 14.8691C270.151 14.7695 269.814 14.6406 269.51 14.4824C269.205 14.3242 268.956 14.0898 268.763 13.7793C268.569 13.4629 268.472 13.0791 268.472 12.6279C268.472 11.8721 268.768 11.251 269.36 10.7646C269.952 10.2783 270.731 10.0352 271.698 10.0352C272.606 10.0352 273.386 10.2725 274.036 10.7471C274.686 11.2158 275.064 11.8604 275.17 12.6807H273.491C273.438 12.3232 273.242 12.0273 272.902 11.793C272.568 11.5586 272.152 11.4414 271.654 11.4414C271.191 11.4414 270.813 11.5381 270.52 11.7314C270.233 11.9248 270.09 12.1826 270.09 12.5049C270.09 12.7861 270.186 13.0146 270.38 13.1904C270.573 13.3604 270.822 13.4863 271.127 13.5684C271.431 13.6504 271.768 13.7236 272.138 13.7881C272.513 13.8525 272.885 13.9375 273.254 14.043C273.629 14.1426 273.969 14.2773 274.273 14.4473C274.578 14.6172 274.827 14.8721 275.02 15.2119C275.214 15.5518 275.31 15.9678 275.31 16.46C275.31 17.2393 274.991 17.8867 274.352 18.4023C273.714 18.918 272.917 19.1758 271.962 19.1758Z" fill="#65816D"/>
<path d="M93.4641 32.4536C93.7575 31.859 94.6054 31.859 94.8988 32.4536L97.2281 37.1733C97.3447 37.4094 97.5699 37.573 97.8305 37.6109L103.039 38.3677C103.695 38.4631 103.957 39.2694 103.482 39.7323L99.7134 43.406C99.5249 43.5898 99.4389 43.8546 99.4834 44.1141L100.373 49.3015C100.485 49.9551 99.7992 50.4534 99.2123 50.1449L94.5537 47.6957C94.3207 47.5732 94.0422 47.5732 93.8092 47.6957L89.1506 50.1449C88.5637 50.4534 87.8777 49.9551 87.9898 49.3015L88.8795 44.1141C88.9241 43.8546 88.838 43.5898 88.6495 43.406L84.8806 39.7323C84.4058 39.2694 84.6678 38.4631 85.324 38.3677L90.5324 37.6109C90.793 37.573 91.0182 37.4094 91.1348 37.1733L93.4641 32.4536Z" fill="#F1A246"/>
<path d="M117.464 32.4536C117.758 31.859 118.605 31.859 118.899 32.4536L121.228 37.1733C121.345 37.4094 121.57 37.573 121.83 37.6109L127.039 38.3677C127.695 38.4631 127.957 39.2694 127.482 39.7323L123.713 43.406C123.525 43.5898 123.439 43.8546 123.483 44.1141L124.373 49.3015C124.485 49.9551 123.799 50.4534 123.212 50.1449L118.554 47.6957C118.321 47.5732 118.042 47.5732 117.809 47.6957L113.151 50.1449C112.564 50.4534 111.878 49.9551 111.99 49.3015L112.88 44.1141C112.924 43.8546 112.838 43.5898 112.649 43.406L108.881 39.7323C108.406 39.2694 108.668 38.4631 109.324 38.3677L114.532 37.6109C114.793 37.573 115.018 37.4094 115.135 37.1733L117.464 32.4536Z" fill="#F1A246"/>
<path d="M141.464 32.4536C141.758 31.859 142.605 31.859 142.899 32.4536L145.228 37.1733C145.345 37.4094 145.57 37.573 145.83 37.6109L151.039 38.3677C151.695 38.4631 151.957 39.2694 151.482 39.7323L147.713 43.406C147.525 43.5898 147.439 43.8546 147.483 44.1141L148.373 49.3015C148.485 49.9551 147.799 50.4534 147.212 50.1449L142.554 47.6957C142.321 47.5732 142.042 47.5732 141.809 47.6957L137.151 50.1449C136.564 50.4534 135.878 49.9551 135.99 49.3015L136.88 44.1141C136.924 43.8546 136.838 43.5898 136.649 43.406L132.881 39.7323C132.406 39.2694 132.668 38.4631 133.324 38.3677L138.532 37.6109C138.793 37.573 139.018 37.4094 139.135 37.1733L141.464 32.4536Z" fill="#F1A246"/>
<path d="M165.464 32.4536C165.758 31.859 166.605 31.859 166.899 32.4536L169.228 37.1733C169.345 37.4094 169.57 37.573 169.83 37.6109L175.039 38.3677C175.695 38.4631 175.957 39.2694 175.482 39.7323L171.713 43.406C171.525 43.5898 171.439 43.8546 171.483 44.1141L172.373 49.3015C172.485 49.9551 171.799 50.4534 171.212 50.1449L166.554 47.6957C166.321 47.5732 166.042 47.5732 165.809 47.6957L161.151 50.1449C160.564 50.4534 159.878 49.9551 159.99 49.3015L160.88 44.1141C160.924 43.8546 160.838 43.5898 160.649 43.406L156.881 39.7323C156.406 39.2694 156.668 38.4631 157.324 38.3677L162.532 37.6109C162.793 37.573 163.018 37.4094 163.135 37.1733L165.464 32.4536Z" fill="#F1A246"/>
<g clip-path="url(#clip0_693_4473)">
<path d="M188.464 32.4536C188.758 31.859 189.605 31.859 189.899 32.4536L191.934 36.5778C192.051 36.8139 192.276 36.9775 192.537 37.0154L197.088 37.6767C197.744 37.7721 198.006 38.5785 197.531 39.0413L194.238 42.2515C194.049 42.4353 193.963 42.7001 194.008 42.9596L194.785 47.4925C194.897 48.146 194.211 48.6444 193.625 48.3359L189.554 46.1957C189.321 46.0732 189.042 46.0732 188.809 46.1957L184.738 48.3359C184.151 48.6444 183.466 48.146 183.578 47.4925L184.355 42.9596C184.4 42.7001 184.314 42.4353 184.125 42.2515L180.832 39.0413C180.357 38.5785 180.619 37.7721 181.275 37.6767L185.826 37.0154C186.087 36.9775 186.312 36.8139 186.429 36.5778L188.464 32.4536Z" fill="#F1A246"/>
</g>
<path d="M187.942 37.5716L190.181 33.0336L192.421 37.5716C192.669 38.0733 193.147 38.4211 193.701 38.5015L198.709 39.2292L195.085 42.7615L195.713 43.406L195.085 42.7615C194.685 43.1521 194.502 43.7148 194.596 44.2663L195.452 49.254L190.973 46.8991C190.477 46.6387 189.886 46.6387 189.39 46.8991L184.911 49.254L185.767 44.2663C185.861 43.7148 185.678 43.1521 185.278 42.7615L181.654 39.2292L186.662 38.5015C187.216 38.4211 187.694 38.0733 187.942 37.5716ZM195.486 49.4537C195.486 49.4536 195.486 49.4536 195.486 49.4535L195.486 49.4537Z" stroke="#F1A246" stroke-width="1.8"/>
<path d="M226.207 45.662H224.605V41.72H222.859V45.662H218.701L223.075 37.4H221.113L216.541 46.022V47.246H222.859V50H224.605V47.246H226.207V45.662ZM228.908 50.18C229.592 50.18 230.132 49.658 230.132 48.974C230.132 48.308 229.592 47.768 228.908 47.768C228.206 47.768 227.684 48.308 227.684 48.974C227.684 49.658 228.206 50.18 228.908 50.18ZM231.006 37.4V39.056H237.324L232.068 50H233.994L239.412 38.606V37.4H231.006Z" fill="#65816D"/>
<defs>
<clipPath id="clip0_693_4473">
<rect width="12.1" height="22" fill="white" transform="translate(179.181 31)"/>
</clipPath>
</defs>
</svg>
