<svg width="43" height="43" viewBox="0 0 43 43" fill="none" xmlns="http://www.w3.org/2000/svg">
<g clip-path="url(#clip0_1592_454)">
<circle cx="21.5" cy="21.5" r="21.5" fill="#22AD01"/>
<path fill-rule="evenodd" clip-rule="evenodd" d="M31.707 28.5223H27.5015V22.4412C27.5015 20.8494 26.8436 19.7628 25.397 19.7628C24.2905 19.7628 23.6752 20.4961 23.3888 21.2028C23.2814 21.4565 23.2981 21.8098 23.2981 22.1632V28.5223H19.1317C19.1317 28.5223 19.1854 17.7502 19.1317 16.771H23.2981V18.6153C23.5443 17.8089 24.8756 16.658 27.0002 16.658C29.6361 16.658 31.707 18.3483 31.707 21.9881V28.5223V28.5223ZM14.9195 15.301H14.8927C13.5501 15.301 12.6797 14.4027 12.6797 13.264C12.6797 12.1031 13.5758 11.2236 14.9453 11.2236C16.3135 11.2236 17.1549 12.1009 17.1817 13.2607C17.1817 14.3994 16.3135 15.301 14.9195 15.301V15.301V15.301ZM13.1602 16.7705H16.869V28.5219H13.1602V16.7705V16.7705Z" fill="white"/>
</g>
<defs>
<clipPath id="clip0_1592_454">
<rect width="43" height="43" fill="white"/>
</clipPath>
</defs>
</svg>
