<svg width="34" height="34" viewBox="0 0 34 34" fill="none" xmlns="http://www.w3.org/2000/svg">
<path fill-rule="evenodd" clip-rule="evenodd" d="M25.2238 31.3002C28.5591 31.3094 30.807 28.5691 30.807 25.2011V17.6689C30.807 14.3009 28.5591 11.5605 25.2238 11.5605H9.58319C6.2479 11.5605 4 14.3009 4 17.6689V25.2011C4 28.5691 6.2479 31.3094 9.58319 31.3002H25.2238Z" stroke="#22AD01" stroke-width="2.5" stroke-linecap="round" stroke-linejoin="round"/>
<rect x="9" y="3" width="17" height="18" rx="3" fill="white" stroke="#22AD01" stroke-width="2.5" stroke-linecap="round" stroke-linejoin="round"/>
<rect x="7.25" y="17.2466" width="21.1206" height="7.31099" fill="white"/>
<path d="M20 12.8309C20 10.3032 16.6163 11.0117 16.6163 10.083C16.6163 9.76702 16.8809 9.57553 17.3157 9.57553C17.845 9.57553 18.1474 9.92021 18.138 10.3606H19.7921C19.7921 9.37447 19.2911 8.43617 18.1664 8.14894V7H16.7108V8.12979C15.7278 8.35957 15.0567 9.11596 15.0567 10.0926C15.0567 12.5436 18.4215 11.8543 18.4215 12.8309C18.4215 13.1947 18.0718 13.4245 17.5425 13.4245C16.9754 13.4245 16.5784 13.0989 16.5784 12.5915H15C15 13.6734 15.69 14.5351 16.7108 14.8319V16H18.1664V14.8894C19.2533 14.6596 20 13.8649 20 12.8309Z" fill="#22AD01"/>
<path d="M29.1825 14.4033L19.8073 22.2422C18.6499 23.163 17.0215 23.163 15.8641 22.2422L5.21875 14.4033" stroke="#22AD01" stroke-width="2.5" stroke-linecap="round" stroke-linejoin="round"/>
</svg>
