<svg width="23" height="23" viewBox="0 0 23 23" fill="none" xmlns="http://www.w3.org/2000/svg">
<circle cx="11.42" cy="11.2872" r="11.1935" fill="#22AD01"/>
<path fill-rule="evenodd" clip-rule="evenodd" d="M7.48438 9.11781C7.48438 8.81112 7.733 8.5625 8.03969 8.5625H14.7034C15.0101 8.5625 15.2587 8.81112 15.2587 9.11781V16.0592C15.2587 16.2573 15.0572 16.3917 14.8743 16.3155L13.7706 15.8556C13.6554 15.8077 13.5275 15.7998 13.4073 15.8335L11.8207 16.2777C11.5269 16.36 11.2162 16.36 10.9224 16.2777L9.33581 15.8335C9.21565 15.7998 9.08767 15.8077 8.9725 15.8556L7.86882 16.3155C7.68593 16.3917 7.48438 16.2573 7.48438 16.0592V9.11781ZM9.15031 10.7837C9.15031 10.4771 9.39893 10.2284 9.70562 10.2284H10.8162C11.1229 10.2284 11.3716 10.4771 11.3716 10.7837C11.3716 11.0904 11.1229 11.3391 10.8162 11.3391H9.70562C9.39893 11.3391 9.15031 11.0904 9.15031 10.7837ZM13.0375 10.2284C12.7308 10.2284 12.4822 10.4771 12.4822 10.7837C12.4822 11.0904 12.7308 11.3391 13.0375 11.3391C13.3442 11.3391 13.5928 11.0904 13.5928 10.7837C13.5928 10.4771 13.3442 10.2284 13.0375 10.2284ZM9.15031 13.005C9.15031 12.6983 9.39893 12.4497 9.70562 12.4497H10.8162C11.1229 12.4497 11.3716 12.6983 11.3716 13.005C11.3716 13.3117 11.1229 13.5603 10.8162 13.5603H9.70562C9.39893 13.5603 9.15031 13.3117 9.15031 13.005ZM13.0375 12.4497C12.7308 12.4497 12.4822 12.6983 12.4822 13.005C12.4822 13.3117 12.7308 13.5603 13.0375 13.5603C13.3442 13.5603 13.5928 13.3117 13.5928 13.005C13.5928 12.6983 13.3442 12.4497 13.0375 12.4497Z" fill="#F5F6F4"/>
<path d="M6.375 6.89906C6.375 6.59237 6.62362 6.34375 6.93031 6.34375H15.8153C16.122 6.34375 16.3706 6.59237 16.3706 6.89906C16.3706 7.20575 16.122 7.45437 15.8153 7.45437H6.93031C6.62362 7.45437 6.375 7.20575 6.375 6.89906Z" fill="#F5F6F4"/>
</svg>
