<svg width="23" height="23" viewBox="0 0 23 23" fill="none" xmlns="http://www.w3.org/2000/svg">
<circle cx="11.5841" cy="11.2325" r="11.1935" fill="#EE8146"/>
<path fill-rule="evenodd" clip-rule="evenodd" d="M6.78116 7.50185C6.53906 7.97698 6.53906 8.59897 6.53906 9.84294V12.7305C6.53906 13.9744 6.53906 14.5964 6.78116 15.0716C6.99411 15.4895 7.3339 15.8293 7.75185 16.0423C8.22698 16.2844 8.84897 16.2844 10.0929 16.2844H12.9805C14.2244 16.2844 14.8464 16.2844 15.3216 16.0423C15.7395 15.8293 16.0793 15.4895 16.2923 15.0716C16.5344 14.5964 16.5344 13.9744 16.5344 12.7305V9.84294C16.5344 8.59897 16.5344 7.97698 16.2923 7.50185C16.0793 7.0839 15.7395 6.74411 15.3216 6.53116C14.8464 6.28906 14.2244 6.28906 12.9805 6.28906H10.0929C8.84897 6.28906 8.22698 6.28906 7.75185 6.53116C7.3339 6.74411 6.99411 7.0839 6.78116 7.50185ZM9.31553 11.842C9.62221 11.842 9.87083 11.5934 9.87083 11.2867C9.87083 10.98 9.62221 10.7314 9.31553 10.7314C9.00885 10.7314 8.76024 10.98 8.76024 11.2867C8.76024 11.5934 9.00885 11.842 9.31553 11.842ZM12.092 11.2867C12.092 11.5934 11.8434 11.842 11.5367 11.842C11.23 11.842 10.9814 11.5934 10.9814 11.2867C10.9814 10.98 11.23 10.7314 11.5367 10.7314C11.8434 10.7314 12.092 10.98 12.092 11.2867ZM13.7579 11.842C14.0646 11.842 14.3132 11.5934 14.3132 11.2867C14.3132 10.98 14.0646 10.7314 13.7579 10.7314C13.4512 10.7314 13.2026 10.98 13.2026 11.2867C13.2026 11.5934 13.4512 11.842 13.7579 11.842ZM9.87083 13.5079C9.87083 13.8146 9.62221 14.0632 9.31553 14.0632C9.00885 14.0632 8.76024 13.8146 8.76024 13.5079C8.76024 13.2012 9.00885 12.9526 9.31553 12.9526C9.62221 12.9526 9.87083 13.2012 9.87083 13.5079ZM11.5367 14.0632C11.8434 14.0632 12.092 13.8146 12.092 13.5079C12.092 13.2012 11.8434 12.9526 11.5367 12.9526C11.23 12.9526 10.9814 13.2012 10.9814 13.5079C10.9814 13.8146 11.23 14.0632 11.5367 14.0632ZM14.3132 13.5079C14.3132 13.8146 14.0646 14.0632 13.7579 14.0632C13.4512 14.0632 13.2026 13.8146 13.2026 13.5079C13.2026 13.2012 13.4512 12.9526 13.7579 12.9526C14.0646 12.9526 14.3132 13.2012 14.3132 13.5079ZM9.31553 8.51024C9.00885 8.51024 8.76024 8.75885 8.76024 9.06553C8.76024 9.37221 9.00885 9.62083 9.31553 9.62083H13.7579C14.0646 9.62083 14.3132 9.37221 14.3132 9.06553C14.3132 8.75885 14.0646 8.51024 13.7579 8.51024H9.31553Z" fill="#FCF9F7"/>
</svg>
