<svg width="25" height="30" viewBox="0 0 25 30" fill="none" xmlns="http://www.w3.org/2000/svg">
<path d="M15.768 15.2668C15.768 12.0988 11.472 12.9868 11.472 11.8228C11.472 11.4268 11.808 11.1868 12.36 11.1868C13.032 11.1868 13.416 11.6188 13.404 12.1708H15.504C15.504 10.9348 14.868 9.75883 13.44 9.39883V7.95883H11.592V9.37483C10.344 9.66283 9.492 10.6108 9.492 11.8348C9.492 14.9068 13.764 14.0428 13.764 15.2668C13.764 15.7228 13.32 16.0108 12.648 16.0108C11.928 16.0108 11.424 15.6028 11.424 14.9668H9.42C9.42 16.3228 10.296 17.4028 11.592 17.7748V19.2388H13.44V17.8468C14.82 17.5588 15.768 16.5628 15.768 15.2668Z" fill="#22AD01"/>
<path fill-rule="evenodd" clip-rule="evenodd" d="M23 7.208C23 3.49032 20.4583 2 16.7989 2H8.20516C4.65819 2 2 3.38871 2 6.96006V26.8586C2 27.8395 3.05542 28.4573 3.91032 27.9777L12.5352 23.1395L21.0856 27.9695C21.9419 28.4519 23 27.8341 23 26.8518V7.208Z" stroke="#22AD01" stroke-width="2.5" stroke-linecap="round" stroke-linejoin="round"/>
</svg>
