<svg width="207" height="51" viewBox="0 0 207 51" fill="none" xmlns="http://www.w3.org/2000/svg">
<path d="M24.9664 50.255C13.9383 50.2252 4.32924 43.2589 1.19467 32.8683C-1.42326 24.1618 0.274004 16.2037 6.16229 9.24899C9.78202 4.97518 14.4499 2.35559 19.9375 1.23457C23.0071 0.608513 26.169 0.582647 29.2485 1.1584C29.5929 1.22132 29.5962 1.31405 29.4621 1.59223C27.9475 4.74501 26.4401 7.90221 24.9399 11.0638C24.9027 11.1627 24.8337 11.2464 24.7438 11.3019C24.6539 11.3573 24.5482 11.3813 24.4431 11.3702C21.2878 11.4508 18.2501 12.5844 15.8134 14.5906C13.3767 16.5968 11.6808 19.3602 10.9958 22.4413C9.48397 29.1758 13.1269 36.142 19.555 38.6109C24.6567 40.5698 29.4041 39.7899 33.7226 36.4417C33.9429 36.2761 34.0339 36.243 34.1912 36.5162C35.8471 39.414 37.5173 42.3063 39.2019 45.193C39.3493 45.4464 39.2963 45.5606 39.0777 45.7129C35.8249 48.0143 32.0621 49.4917 28.1125 50.0182C27.0687 50.1528 26.0185 50.2319 24.9664 50.255Z" fill="#EF492D"/>
<path d="M42.0984 43.0851C41.9626 43.0122 41.9245 42.8632 41.855 42.7423C39.9717 39.4857 38.095 36.2259 36.225 32.9627C36.1614 32.829 36.0577 32.7185 35.9282 32.6467C35.7988 32.5748 35.6501 32.5452 35.503 32.562C31.7641 32.5736 28.0268 32.562 24.2878 32.562H23.8225C23.8192 32.4183 23.8714 32.279 23.9682 32.1729C25.867 28.8744 27.7668 25.5759 29.6677 22.2774C29.7182 22.1683 29.8015 22.0777 29.9061 22.0183C30.0106 21.9589 30.1311 21.9337 30.2506 21.9462C34.0779 21.9561 37.9041 21.9561 41.7291 21.9462C41.848 21.9338 41.9678 21.9591 42.0715 22.0185C42.1752 22.0779 42.2576 22.1685 42.307 22.2774C44.2157 25.6035 46.1332 28.9251 48.0595 32.2424C48.1239 32.3274 48.1601 32.4304 48.163 32.537C48.166 32.6436 48.1356 32.7484 48.0761 32.8369C46.1409 36.1784 44.2129 39.5166 42.2921 42.8516C42.2408 42.936 42.2176 43.0519 42.0984 43.0851Z" fill="#EF492D"/>
<path d="M34.0372 8.0567C33.3517 7.37117 32.7125 6.71545 32.0502 6.06966C31.8448 5.87095 31.9889 5.72358 32.0767 5.57289C32.8346 4.25313 34.0686 3.27324 35.5258 2.83408C36.4089 2.54267 37.3431 2.43927 38.2685 2.53053C39.194 2.62179 40.09 2.90568 40.8991 3.36396C43.8797 4.97512 43.6131 8.71243 41.8927 10.4014C41.2404 11.0295 40.5016 11.5609 39.6986 11.9795C38.8707 12.4199 38.0428 12.8356 37.2314 13.3042C36.5574 13.69 36.0325 14.2232 35.7891 14.9948C35.6898 15.3061 35.7494 15.3872 36.0822 15.3839C38.2713 15.3707 40.462 15.3839 42.6527 15.3707C42.9839 15.3707 43.1081 15.4336 43.0948 15.7946C43.065 16.5679 43.0766 17.3428 43.0948 18.1128C43.0948 18.3579 43.0269 18.444 42.7752 18.444C39.2549 18.4374 35.7356 18.4374 32.2174 18.444C32.0518 18.444 31.8978 18.444 31.8962 18.2039C31.8962 15.7664 32.3466 13.4962 34.2541 11.7576C35.1628 10.9529 36.1828 10.2837 37.2827 9.77053C37.8855 9.47578 38.4948 9.19429 39.0214 8.76707C39.4817 8.39284 39.7996 7.93914 39.8328 7.32646C39.8824 6.36771 39.124 5.65569 37.9782 5.58117C36.3306 5.46361 35.1417 6.20544 34.3104 7.58312C34.2276 7.7189 34.1515 7.858 34.0372 8.0567Z" fill="#EF492D"/>
<path d="M90.2122 4.92705C90.5115 4.00574 91.8149 4.00574 92.1143 4.92705L93.4084 8.90983C93.5422 9.32185 93.9262 9.60081 94.3594 9.60081H98.5472C99.5159 9.60081 99.9187 10.8404 99.1349 11.4098L95.747 13.8713C95.3965 14.126 95.2498 14.5773 95.3837 14.9894L96.6778 18.9721C96.9772 19.8934 95.9227 20.6596 95.139 20.0902L91.751 17.6287C91.4005 17.374 90.9259 17.374 90.5754 17.6287L87.1875 20.0902C86.4038 20.6596 85.3493 19.8934 85.6486 18.9721L86.9427 14.9894C87.0766 14.5773 86.9299 14.126 86.5795 13.8713L83.1915 11.4098C82.4078 10.8404 82.8106 9.60081 83.7793 9.60081H87.967C88.4003 9.60081 88.7842 9.32185 88.9181 8.90983L90.2122 4.92705Z" fill="#EF492D"/>
<path d="M116.212 4.92705C116.512 4.00574 117.815 4.00574 118.114 4.92705L119.408 8.90983C119.542 9.32185 119.926 9.60081 120.359 9.60081H124.547C125.516 9.60081 125.919 10.8404 125.135 11.4098L121.747 13.8713C121.397 14.126 121.25 14.5773 121.384 14.9894L122.678 18.9721C122.977 19.8934 121.923 20.6596 121.139 20.0902L117.751 17.6287C117.401 17.374 116.926 17.374 116.575 17.6287L113.187 20.0902C112.404 20.6596 111.349 19.8934 111.649 18.9721L112.943 14.9894C113.077 14.5773 112.93 14.126 112.579 13.8713L109.191 11.4098C108.408 10.8404 108.811 9.60081 109.779 9.60081H113.967C114.4 9.60081 114.784 9.32185 114.918 8.90983L116.212 4.92705Z" fill="#EF492D"/>
<path d="M142.212 4.92705C142.512 4.00574 143.815 4.00574 144.114 4.92705L145.408 8.90983C145.542 9.32185 145.926 9.60081 146.359 9.60081H150.547C151.516 9.60081 151.919 10.8404 151.135 11.4098L147.747 13.8713C147.397 14.126 147.25 14.5773 147.384 14.9894L148.678 18.9721C148.977 19.8934 147.923 20.6596 147.139 20.0902L143.751 17.6287C143.401 17.374 142.926 17.374 142.575 17.6287L139.187 20.0902C138.404 20.6596 137.349 19.8934 137.649 18.9721L138.943 14.9894C139.077 14.5773 138.93 14.126 138.579 13.8713L135.191 11.4098C134.408 10.8404 134.811 9.60081 135.779 9.60081H139.967C140.4 9.60081 140.784 9.32185 140.918 8.90983L142.212 4.92705Z" fill="#EF492D"/>
<path d="M168.212 4.92705C168.512 4.00574 169.815 4.00574 170.114 4.92705L171.408 8.90983C171.542 9.32185 171.926 9.60081 172.359 9.60081H176.547C177.516 9.60081 177.919 10.8404 177.135 11.4098L173.747 13.8713C173.397 14.126 173.25 14.5773 173.384 14.9894L174.678 18.9721C174.977 19.8934 173.923 20.6596 173.139 20.0902L169.751 17.6287C169.401 17.374 168.926 17.374 168.575 17.6287L165.187 20.0902C164.404 20.6596 163.349 19.8934 163.649 18.9721L164.943 14.9894C165.077 14.5773 164.93 14.126 164.579 13.8713L161.191 11.4098C160.408 10.8404 160.811 9.60081 161.779 9.60081H165.967C166.4 9.60081 166.784 9.32185 166.918 8.90983L168.212 4.92705Z" fill="#EF492D"/>
<path d="M194.212 4.92705C194.512 4.00574 195.815 4.00574 196.114 4.92705L197.408 8.90983C197.542 9.32185 197.926 9.60081 198.359 9.60081H202.547C203.516 9.60081 203.919 10.8404 203.135 11.4098L199.747 13.8713C199.397 14.126 199.25 14.5773 199.384 14.9894L200.678 18.9721C200.977 19.8934 199.923 20.6596 199.139 20.0902L195.751 17.6287C195.401 17.374 194.926 17.374 194.575 17.6287L191.187 20.0902C190.404 20.6596 189.349 19.8934 189.649 18.9721L190.943 14.9894C191.077 14.5773 190.93 14.126 190.579 13.8713L187.191 11.4098C186.408 10.8404 186.811 9.60081 187.779 9.60081H191.967C192.4 9.60081 192.784 9.32185 192.918 8.90983L194.212 4.92705Z" fill="#EF492D"/>
<path d="M90.3849 33.3965V35.0576H86.3947V46H84.6456V35.0576H80.6466V33.3965H90.3849ZM94.0851 37.0352C94.923 37.0352 95.6876 37.2373 96.379 37.6416C97.0704 38.04 97.6154 38.5908 98.0138 39.2939C98.4181 39.9971 98.6203 40.7734 98.6203 41.623C98.6203 42.9062 98.1808 43.9873 97.3019 44.8662C96.4288 45.7393 95.3566 46.1758 94.0851 46.1758C93.2472 46.1758 92.4796 45.9766 91.7824 45.5781C91.091 45.1797 90.546 44.6318 90.1476 43.9346C89.7492 43.2373 89.5499 42.4668 89.5499 41.623C89.5499 40.3281 89.9865 39.2412 90.8595 38.3623C91.7326 37.4775 92.8078 37.0352 94.0851 37.0352ZM94.0851 38.6172C93.2589 38.6172 92.5646 38.9043 92.0021 39.4785C91.4454 40.0527 91.1671 40.7676 91.1671 41.623C91.1671 42.4609 91.4454 43.167 92.0021 43.7412C92.5646 44.3096 93.2589 44.5938 94.0851 44.5938C94.9054 44.5938 95.5968 44.3066 96.1593 43.7324C96.7218 43.1582 97.0031 42.4551 97.0031 41.623C97.0031 40.7676 96.7218 40.0527 96.1593 39.4785C95.5968 38.9043 94.9054 38.6172 94.0851 38.6172ZM105.458 37.0352C106.243 37.0352 106.964 37.2373 107.62 37.6416C108.277 38.0459 108.795 38.5996 109.176 39.3027C109.557 40.0059 109.747 40.7734 109.747 41.6055C109.747 42.4375 109.557 43.2051 109.176 43.9082C108.795 44.6113 108.277 45.165 107.62 45.5693C106.964 45.9736 106.243 46.1758 105.458 46.1758C104.702 46.1758 104.04 46.0088 103.472 45.6748C102.909 45.335 102.464 44.8545 102.136 44.2334V49.1816H100.457V37.2197H102.136V38.9775C102.464 38.3564 102.909 37.8789 103.472 37.5449C104.04 37.2051 104.702 37.0352 105.458 37.0352ZM105.124 44.5938C105.956 44.5938 106.659 44.3066 107.234 43.7324C107.814 43.1523 108.104 42.4434 108.104 41.6055C108.104 40.7676 107.814 40.0615 107.234 39.4873C106.659 38.9072 105.956 38.6172 105.124 38.6172C104.263 38.6172 103.548 38.9014 102.98 39.4697C102.417 40.0322 102.136 40.7441 102.136 41.6055C102.136 42.4668 102.417 43.1816 102.98 43.75C103.548 44.3125 104.263 44.5938 105.124 44.5938ZM118.791 46.1758C117.76 46.1758 116.907 45.918 116.234 45.4023C115.566 44.8867 115.188 44.1865 115.1 43.3018H116.691C116.743 43.7354 116.954 44.084 117.323 44.3477C117.698 44.6113 118.164 44.7432 118.721 44.7432C119.266 44.7432 119.702 44.6289 120.03 44.4004C120.359 44.166 120.523 43.8643 120.523 43.4951C120.523 43.2021 120.426 42.9619 120.233 42.7744C120.039 42.5869 119.79 42.4492 119.485 42.3613C119.181 42.2676 118.841 42.1855 118.466 42.1152C118.097 42.0449 117.725 41.9629 117.35 41.8691C116.981 41.7695 116.644 41.6406 116.339 41.4824C116.034 41.3242 115.785 41.0898 115.592 40.7793C115.399 40.4629 115.302 40.0791 115.302 39.6279C115.302 38.8721 115.598 38.251 116.19 37.7646C116.781 37.2783 117.561 37.0352 118.527 37.0352C119.436 37.0352 120.215 37.2725 120.865 37.7471C121.516 38.2158 121.894 38.8604 121.999 39.6807H120.32C120.268 39.3232 120.071 39.0273 119.732 38.793C119.398 38.5586 118.982 38.4414 118.484 38.4414C118.021 38.4414 117.643 38.5381 117.35 38.7314C117.063 38.9248 116.919 39.1826 116.919 39.5049C116.919 39.7861 117.016 40.0146 117.209 40.1904C117.402 40.3604 117.652 40.4863 117.956 40.5684C118.261 40.6504 118.598 40.7236 118.967 40.7881C119.342 40.8525 119.714 40.9375 120.083 41.043C120.458 41.1426 120.798 41.2773 121.103 41.4473C121.407 41.6172 121.656 41.8721 121.85 42.2119C122.043 42.5518 122.14 42.9678 122.14 43.46C122.14 44.2393 121.82 44.8867 121.182 45.4023C120.543 45.918 119.746 46.1758 118.791 46.1758ZM127.976 37.0352C128.814 37.0352 129.578 37.2373 130.27 37.6416C130.961 38.04 131.506 38.5908 131.904 39.2939C132.309 39.9971 132.511 40.7734 132.511 41.623C132.511 42.9062 132.071 43.9873 131.193 44.8662C130.319 45.7393 129.247 46.1758 127.976 46.1758C127.138 46.1758 126.37 45.9766 125.673 45.5781C124.982 45.1797 124.437 44.6318 124.038 43.9346C123.64 43.2373 123.441 42.4668 123.441 41.623C123.441 40.3281 123.877 39.2412 124.75 38.3623C125.623 37.4775 126.698 37.0352 127.976 37.0352ZM127.976 38.6172C127.15 38.6172 126.455 38.9043 125.893 39.4785C125.336 40.0527 125.058 40.7676 125.058 41.623C125.058 42.4609 125.336 43.167 125.893 43.7412C126.455 44.3096 127.15 44.5938 127.976 44.5938C128.796 44.5938 129.487 44.3066 130.05 43.7324C130.612 43.1582 130.894 42.4551 130.894 41.623C130.894 40.7676 130.612 40.0527 130.05 39.4785C129.487 38.9043 128.796 38.6172 127.976 38.6172ZM138.777 34.6797C137.6 34.6797 137.011 35.2363 137.011 36.3496V37.2197H139.402V38.8018H137.011V46H135.359V38.8018H133.645V37.2197H135.359V36.332C135.359 35.2832 135.634 34.4863 136.185 33.9414C136.735 33.3906 137.485 33.1152 138.435 33.1152C138.786 33.1152 139.109 33.1504 139.402 33.2207V34.75C139.22 34.7031 139.012 34.6797 138.777 34.6797ZM145.8 38.8018H143.427V42.8535C143.427 43.9785 144.013 44.541 145.185 44.541C145.437 44.541 145.642 44.5176 145.8 44.4707V46C145.53 46.0703 145.211 46.1055 144.842 46.1055C143.893 46.1055 143.143 45.833 142.592 45.2881C142.041 44.7373 141.766 43.9375 141.766 42.8887V38.8018H140.061V37.2197H141.766V34.8379H143.427V37.2197H145.8V38.8018ZM149.817 46L146.635 37.2197H148.393L150.502 43.5127L152.752 37.2197H154.106L156.391 43.5127L158.474 37.2197H160.258L157.059 46H155.723L153.438 39.6982L151.135 46H149.817ZM168.476 37.2197H170.137V46H168.476V44.1982C168.148 44.8369 167.699 45.3262 167.131 45.666C166.563 46.0059 165.895 46.1758 165.127 46.1758C163.943 46.1758 162.936 45.7334 162.104 44.8486C161.277 43.958 160.864 42.877 160.864 41.6055C160.864 40.334 161.277 39.2559 162.104 38.3711C162.936 37.4805 163.943 37.0352 165.127 37.0352C165.895 37.0352 166.563 37.2051 167.131 37.5449C167.699 37.8848 168.148 38.374 168.476 39.0127V37.2197ZM165.47 44.5938C166.337 44.5938 167.055 44.3125 167.623 43.75C168.192 43.1875 168.476 42.4727 168.476 41.6055C168.476 40.7383 168.192 40.0234 167.623 39.4609C167.055 38.8984 166.337 38.6172 165.47 38.6172C164.638 38.6172 163.932 38.9072 163.352 39.4873C162.772 40.0674 162.482 40.7734 162.482 41.6055C162.482 42.4375 162.772 43.1436 163.352 43.7236C163.932 44.3037 164.638 44.5938 165.47 44.5938ZM176.527 37.0527C176.808 37.0527 177.077 37.0879 177.335 37.1582V38.6963C177.025 38.5967 176.737 38.5469 176.474 38.5469C175.8 38.5469 175.237 38.7783 174.786 39.2412C174.341 39.6982 174.118 40.3018 174.118 41.0518V46H172.44V37.2197H174.118V38.4941C174.382 38.043 174.722 37.6914 175.138 37.4395C175.554 37.1816 176.017 37.0527 176.527 37.0527ZM186.485 41.3945C186.485 41.6465 186.473 41.8662 186.449 42.0537H179.392C179.491 42.8564 179.799 43.4951 180.315 43.9697C180.836 44.4443 181.501 44.6816 182.31 44.6816C182.925 44.6816 183.455 44.5439 183.901 44.2686C184.346 43.9873 184.624 43.6152 184.735 43.1523H186.397C186.233 44.0664 185.77 44.7988 185.008 45.3496C184.246 45.9004 183.329 46.1758 182.257 46.1758C180.98 46.1758 179.91 45.7363 179.049 44.8574C178.188 43.9727 177.757 42.877 177.757 41.5703C177.757 40.7383 177.953 39.9766 178.346 39.2852C178.738 38.5879 179.277 38.04 179.963 37.6416C180.654 37.2373 181.413 37.0352 182.239 37.0352C183.429 37.0352 184.434 37.4482 185.254 38.2744C186.074 39.1006 186.485 40.1406 186.485 41.3945ZM179.444 40.6562H184.683C184.612 40.0352 184.346 39.5283 183.883 39.1357C183.426 38.7432 182.855 38.5469 182.169 38.5469C181.478 38.5469 180.889 38.7344 180.402 39.1094C179.916 39.4844 179.597 40 179.444 40.6562Z" fill="#65816D"/>
</svg>
