<svg width="43" height="43" viewBox="0 0 43 43" fill="none" xmlns="http://www.w3.org/2000/svg">
<g clip-path="url(#clip0_1592_454)">
<circle cx="21.5" cy="21.5" r="21.5" fill="#22AD01"/>
<path fill-rule="evenodd" clip-rule="evenodd" d="M32 15.0125C31.2284 15.3538 30.3976 15.5847 29.5261 15.6878C30.4161 15.1574 31.099 14.3163 31.4207 13.3143C30.5874 13.8055 29.6667 14.1628 28.683 14.3544C27.8991 13.5206 26.7787 13 25.5387 13C23.1609 13 21.2319 14.9216 21.2319 17.2914C21.2319 17.6279 21.2689 17.9545 21.3428 18.2688C17.7621 18.0896 14.5881 16.3828 12.4619 13.7834C12.0909 14.4194 11.8789 15.1574 11.8789 15.9432C11.8789 17.4314 12.6394 18.7453 13.7956 19.5151C13.0905 19.4943 12.4249 19.299 11.8431 18.9798V19.0326C11.8431 21.1126 13.3284 22.8476 15.3006 23.2405C14.9394 23.3412 14.5585 23.3915 14.1653 23.3915C13.888 23.3915 13.6168 23.3658 13.3543 23.3154C13.9028 25.0197 15.4929 26.2611 17.3788 26.2943C15.9046 27.446 14.0458 28.1324 12.028 28.1324C11.6804 28.1324 11.3365 28.1127 11 28.0735C12.9068 29.2891 15.1724 30 17.6043 30C25.53 30 29.8627 23.4615 29.8627 17.79C29.8627 17.6033 29.859 17.4167 29.8516 17.2337C30.6934 16.6284 31.4244 15.8732 32 15.0125" fill="white"/>
</g>
<defs>
<clipPath id="clip0_1592_454">
<rect width="43" height="43" fill="white"/>
</clipPath>
</defs>
</svg>
