<svg width="33" height="25" viewBox="0 0 33 25" fill="none" xmlns="http://www.w3.org/2000/svg">
<path d="M24.9531 11.4547C26.9374 11.1759 28.4651 9.47468 28.4693 7.41361C28.4693 5.3824 26.9886 3.69826 25.047 3.37964" stroke="#22AD01" stroke-width="2.5" stroke-linecap="round" stroke-linejoin="round"/>
<path d="M27.5781 16.2246C29.4998 16.5119 30.8411 17.1847 30.8411 18.5716C30.8411 19.526 30.2096 20.1462 29.1883 20.5359" stroke="#22AD01" stroke-width="2.5" stroke-linecap="round" stroke-linejoin="round"/>
<path fill-rule="evenodd" clip-rule="evenodd" d="M16.4215 16.813C11.8498 16.813 7.94531 17.5057 7.94531 20.2723C7.94531 23.0375 11.8257 23.7501 16.4215 23.7501C20.9931 23.7501 24.8962 23.0645 24.8962 20.2965C24.8962 17.5285 21.0173 16.813 16.4215 16.813Z" stroke="#22AD01" stroke-width="2.5" stroke-linecap="round" stroke-linejoin="round"/>
<path fill-rule="evenodd" clip-rule="evenodd" d="M16.4166 12.8644C19.4165 12.8644 21.8488 10.4335 21.8488 7.4322C21.8488 4.43233 19.4165 2 16.4166 2C13.4167 2 10.9844 4.43233 10.9844 7.4322C10.973 10.4221 13.3869 12.8544 16.3768 12.8644H16.4166Z" stroke="#22AD01" stroke-width="2.5" stroke-linecap="round" stroke-linejoin="round"/>
<path d="M7.8834 11.4547C5.89771 11.1759 4.37145 9.47468 4.36719 7.41361C4.36719 5.3824 5.84792 3.69826 7.78952 3.37964" stroke="#22AD01" stroke-width="2.5" stroke-linecap="round" stroke-linejoin="round"/>
<path d="M5.26302 16.2246C3.34134 16.5119 2 17.1847 2 18.5716C2 19.526 2.63155 20.1462 3.65285 20.5359" stroke="#22AD01" stroke-width="2.5" stroke-linecap="round" stroke-linejoin="round"/>
</svg>
