<svg width="35" height="34" viewBox="0 0 35 34" fill="none" xmlns="http://www.w3.org/2000/svg">
<path fill-rule="evenodd" clip-rule="evenodd" d="M14.7826 20.9922C10.3153 20.9922 6.5 21.6674 6.5 24.3729C6.5 27.0783 10.2921 27.7779 14.7826 27.7779C19.251 27.7779 23.0652 27.1016 23.0652 24.3973C23.0652 21.693 19.2743 20.9922 14.7826 20.9922Z" stroke="#22AD01" stroke-width="2.5" stroke-linecap="round" stroke-linejoin="round"/>
<path fill-rule="evenodd" clip-rule="evenodd" d="M14.7841 17.133C17.7162 17.133 20.0928 14.7564 20.0928 11.8243C20.0928 8.89221 17.7162 6.51562 14.7841 6.51562C11.8532 6.51562 9.4766 8.89221 9.4766 11.8243C9.46614 14.7459 11.8253 17.1225 14.7481 17.133H14.7841Z" stroke="#22AD01" stroke-width="2.5" stroke-linecap="round" stroke-linejoin="round"/>
<path d="M26.6201 13.3906V18.0508" stroke="#22AD01" stroke-width="2.5" stroke-linecap="round" stroke-linejoin="round"/>
<path d="M29.0032 15.7217H24.25" stroke="#22AD01" stroke-width="2.5" stroke-linecap="round" stroke-linejoin="round"/>
</svg>
